<?xml version="1.0" encoding="UTF-8"?>
<svg width="32px" height="32px" viewBox="0 0 32 32" version="1.1" xmlns="http://www.w3.org/2000/svg" xmlns:xlink="http://www.w3.org/1999/xlink">
    <!-- Generator: Sketch 53.2 (72643) - https://sketchapp.com -->
    <title>announcement</title>
    <desc>Created with Sketch.</desc>
    <g id="announcement" stroke="none" stroke-width="1" fill="none" fill-rule="evenodd">
        <path d="M18.339,22.025 C18.333,22.027 17.78,22.211 17.3,22.211 C17.035,22.211 16.928,22.156 16.894,22.132 C16.726,22.015 16.414,21.796 16.948,20.732 L17.948,18.738 C18.541,17.554 18.629,16.409 18.193,15.513 C17.837,14.78 17.154,14.277 16.273,14.097 C15.9577498,14.0324763 15.6367856,13.9999779 15.315,14 C13.466,14 12.221,15.08 12.169,15.126 C11.9899655,15.2837868 11.947392,15.5461022 12.0673342,15.7524124 C12.1872763,15.9587227 12.4362976,16.0515143 12.662,15.974 C12.667,15.972 13.221,15.787 13.701,15.787 C13.964,15.787 14.07,15.842 14.103,15.865 C14.272,15.983 14.585,16.205 14.052,17.267 L13.052,19.262 C12.458,20.447 12.371,21.592 12.807,22.487 C13.163,23.22 13.845,23.723 14.728,23.903 C15.042,23.966 15.364,24 15.682,24 C17.532,24 18.778,22.92 18.83,22.874 C19.0091814,22.7165819 19.0522302,22.4545216 18.9328246,22.2480544 C18.8134189,22.0415871 18.5648065,21.9482025 18.339,22.025 L18.339,22.025 Z" id="Icon-Path" fill="#000000" fill-rule="nonzero"></path>
        <circle id="Icon-Oval" fill="#000000" fill-rule="nonzero" cx="17.5" cy="10.501" r="2.5"></circle>
    </g>
</svg>