<?xml version="1.0" encoding="UTF-8"?>
<svg width="32px" height="32px" viewBox="0 0 32 32" version="1.1" xmlns="http://www.w3.org/2000/svg" xmlns:xlink="http://www.w3.org/1999/xlink">
    <!-- Generator: Sketch 53.2 (72643) - https://sketchapp.com -->
    <title>forum-background</title>
    <desc>Created with Sketch.</desc>
    <defs>
        <linearGradient x1="50%" y1="0%" x2="50%" y2="100%" id="linearGradient-1">
            <stop stop-color="#DCDFE4" offset="0%"></stop>
            <stop stop-color="#FFFFFF" offset="100%"></stop>
        </linearGradient>
    </defs>
    <g id="forum-background" stroke="none" stroke-width="1" fill="none" fill-rule="evenodd">
        <circle id="background" fill="url(#linearGradient-1)" cx="16" cy="16" r="13"></circle>
        <path d="M16,29 C23.1797017,29 29,23.1797017 29,16 C29,8.82029825 23.1797017,3 16,3 C8.82029825,3 3,8.82029825 3,16 C3,23.1797017 8.82029825,29 16,29 Z M16,30.5 C7.99187113,30.5 1.5,24.0081289 1.5,16 C1.5,7.99187113 7.99187113,1.5 16,1.5 C24.0081289,1.5 30.5,7.99187113 30.5,16 C30.5,24.0081289 24.0081289,30.5 16,30.5 Z" id="inner-border" fill="#FFFFFF" fill-rule="nonzero"></path>
        <path d="M16,30 C23.7319865,30 30,23.7319865 30,16 C30,8.2680135 23.7319865,2 16,2 C8.2680135,2 2,8.2680135 2,16 C2,23.7319865 8.2680135,30 16,30 Z M16,31 C7.71572875,31 1,24.2842712 1,16 C1,7.71572875 7.71572875,1 16,1 C24.2842712,1 31,7.71572875 31,16 C31,24.2842712 24.2842712,31 16,31 Z" id="outer-border" fill="#000000" fill-rule="nonzero"></path>
    </g>
</svg>