<?xml version="1.0" encoding="UTF-8"?>
<svg width="32px" height="32px" viewBox="0 0 32 32" version="1.1" xmlns="http://www.w3.org/2000/svg" xmlns:xlink="http://www.w3.org/1999/xlink">
    <!-- Generator: Sketch 53.2 (72643) - https://sketchapp.com -->
    <title>sticky-background</title>
    <desc>Created with Sketch.</desc>
    <defs>
        <linearGradient x1="50%" y1="0%" x2="50%" y2="100%" id="linearGradient-1">
            <stop stop-color="#DCDFE4" offset="0%"></stop>
            <stop stop-color="#FFFFFF" offset="100%"></stop>
        </linearGradient>
    </defs>
    <g id="sticky-background" stroke="none" stroke-width="1" fill="none" fill-rule="evenodd">
        <path d="M4,13 C4,6.372583 9.372583,1 16,1 C22.627417,1 28,6.372583 28,13 C28,17.058764 25.9849671,20.6468919 22.900721,22.8185639 C22.9660024,23.202626 23,23.5973427 23,24 C23,27.8659932 19.8659932,31 16,31 C12.1340068,31 9,27.8659932 9,24 C9,23.5973427 9.03399764,23.202626 9.09927899,22.8185639 C6.01503292,20.6468919 4,17.058764 4,13 Z" id="outer-bg" fill="#000000" fill-rule="nonzero"></path>
        <path d="M9.67499872,22.0009168 C6.76541604,19.9522284 5,16.6253587 5,13 C5,6.92486775 9.92486775,2 16,2 C22.0751322,2 27,6.92486775 27,13 C27,16.6253587 25.234584,19.9522284 22.3250013,22.0009168 L21.8091377,22.3641454 L21.9148612,22.9861364 C21.9713602,23.3185302 22,23.6572292 22,24 C22,27.3137085 19.3137085,30 16,30 C12.6862915,30 10,27.3137085 10,24 C10,23.6572292 10.0286398,23.3185302 10.0851388,22.9861364 L10.1908623,22.3641454 L9.67499872,22.0009168 Z" id="Path" fill="#FFFFFF" fill-rule="nonzero"></path>
        <path d="M10.2507184,21.1832696 L11.2824456,21.9097269 L11.0709985,23.1537088 C11.0237776,23.4315181 11,23.7141786 11,24 C11,26.7614237 13.2385763,29 16,29 C18.7614237,29 21,26.7614237 21,24 C21,23.7141786 20.9762224,23.4315181 20.9290015,23.1537088 L20.7175544,21.9097269 L21.7492816,21.1832696 C24.4153311,19.3060572 26,16.2727962 26,13 C26,7.4771525 21.5228475,3 16,3 C10.4771525,3 6,7.4771525 6,13 C6,16.2727962 7.58466885,19.3060572 10.2507184,21.1832696 Z" id="Path" fill="url(#linearGradient-1)"></path>
    </g>
</svg>