<?xml version="1.0" encoding="UTF-8"?>
<svg width="32px" height="32px" viewBox="0 0 32 32" version="1.1" xmlns="http://www.w3.org/2000/svg" xmlns:xlink="http://www.w3.org/1999/xlink">
    <!-- Generator: Sketch 53.2 (72643) - https://sketchapp.com -->
    <title>sticky-locked</title>
    <desc>Created with Sketch.</desc>
    <g id="sticky-locked" stroke="none" stroke-width="1" fill="none" fill-rule="evenodd">
        <path d="M28,23 L28.5,23 C29.3272847,23 30,23.6727153 30,24.5 L30,28.5 C30,29.3272847 29.3272847,30 28.5,30 L21.5,30 C20.6727153,30 20,29.3272847 20,28.5 L20,24.5 C20,23.6727153 20.6727153,23 21.5,23 L22,23 L22,22 C22,20.3427153 23.3427153,19 25,19 C26.6572847,19 28,20.3427153 28,22 L28,23 Z" id="Path" fill="#FFFFFF" fill-rule="nonzero"></path>
        <path d="M27,24 L28.5,24 C28.775,24 29,24.225 29,24.5 L29,28.5 C29,28.775 28.775,29 28.5,29 L21.5,29 C21.225,29 21,28.775 21,28.5 L21,24.5 C21,24.225 21.225,24 21.5,24 L23,24 L23,22 C23,20.895 23.895,20 25,20 C26.105,20 27,20.895 27,22 L27,24 Z M26,24 L26,22 C26,21.45 25.55,21 25,21 C24.45,21 24,21.45 24,22 L24,24 L26,24 Z M25.5,28 L25.32,26.425 C25.575,26.305 25.75,26.05 25.75,25.75 C25.75,25.335 25.415,25 25,25 C24.585,25 24.25,25.335 24.25,25.75 C24.25,26.05 24.425,26.305 24.68,26.425 L24.5,28 L25.5,28 Z" id="Icon-Shape" fill="#000000" fill-rule="nonzero"></path>
    </g>
</svg>