<?xml version="1.0" encoding="UTF-8"?>
<svg width="32px" height="32px" viewBox="0 0 32 32" version="1.1" xmlns="http://www.w3.org/2000/svg" xmlns:xlink="http://www.w3.org/1999/xlink">
    <!-- Generator: Sketch 53.2 (72643) - https://sketchapp.com -->
    <title>sticky-locked</title>
    <desc>Created with Sketch.</desc>
    <g id="sticky-locked" stroke="none" stroke-width="1" fill="none" fill-rule="evenodd">
        <path d="M29.5,22.5 L30.5,22.5 C30.775,22.5 31,22.725 31,23 L31,28.5 C31,28.775 30.775,29 30.5,29 L22.5,29 C22.225,29 22,28.775 22,28.5 L22,23 C22,22.725 22.225,22.5 22.5,22.5 L23.5,22.5 L23.5,21 C23.5,19.895 25.395,19 26.5,19 C27.605,19 29.5,19.895 29.5,21 L29.5,22.5 Z" id="Icon-Path" fill="#FFFFFF"></path>
        <path d="M28.5,23.5 L29.5,23.5 C29.775,23.5 30,23.725 30,24 L30,27.5 C30,27.775 29.775,28 29.5,28 L23.5,28 C23.225,28 23,27.775 23,27.5 L23,24 C23,23.725 23.225,23.5 23.5,23.5 L24.5,23.5 L24.5,22 C24.5,20.895 25.395,20 26.5,20 C27.605,20 28.5,20.895 28.5,22 L28.5,23.5 Z M27.5,23.5 L27.5,22 C27.5,21.45 27.05,21 26.5,21 C25.95,21 25.5,21.45 25.5,22 L25.5,23.5 L27.5,23.5 Z M27,27 L26.82,25.925 C27.075,25.805 27.25,25.55 27.25,25.25 C27.25,24.835 26.915,24.5 26.5,24.5 C26.085,24.5 25.75,24.835 25.75,25.25 C25.75,25.55 25.925,25.805 26.18,25.925 L26,27 L27,27 Z" id="Icon-Shape" fill="#000000" fill-rule="nonzero"></path>
    </g>
</svg>