<?xml version="1.0" encoding="UTF-8"?>
<svg width="32px" height="32px" viewBox="0 0 32 32" version="1.1" xmlns="http://www.w3.org/2000/svg" xmlns:xlink="http://www.w3.org/1999/xlink">
    <!-- Generator: Sketch 53.2 (72643) - https://sketchapp.com -->
    <title>topic-locked</title>
    <desc>Created with Sketch.</desc>
    <g id="topic-locked" stroke="none" stroke-width="1" fill="none" fill-rule="evenodd">
        <g id="small-lock" transform="translate(22.000000, 21.000000)">
            <path d="M7.5,3.5 L8.5,3.5 C8.775,3.5 9,3.725 9,4 L9,9.5 C9,9.775 8.775,10 8.5,10 L0.5,10 C0.225,10 -5.32907052e-15,9.775 -5.32907052e-15,9.5 L-5.32907052e-15,4 C-5.32907052e-15,3.725 0.225,3.5 0.5,3.5 L1.5,3.5 L1.5,2 C1.5,0.895 3.395,-5.32907052e-15 4.5,-5.32907052e-15 C5.605,-5.32907052e-15 7.5,0.895 7.5,2 L7.5,3.5 Z" id="Icon-Path" fill="#FFFFFF"></path>
            <path d="M6.5,4.5 L7.5,4.5 C7.775,4.5 8,4.725 8,5 L8,8.5 C8,8.775 7.775,9 7.5,9 L1.5,9 C1.225,9 1,8.775 1,8.5 L1,5 C1,4.725 1.225,4.5 1.5,4.5 L2.5,4.5 L2.5,3 C2.5,1.895 3.395,1 4.5,1 C5.605,1 6.5,1.895 6.5,3 L6.5,4.5 Z M5.5,4.5 L5.5,3 C5.5,2.45 5.05,2 4.5,2 C3.95,2 3.5,2.45 3.5,3 L3.5,4.5 L5.5,4.5 Z M5,8 L4.82,6.925 C5.075,6.805 5.25,6.55 5.25,6.25 C5.25,5.835 4.915,5.5 4.5,5.5 C4.085,5.5 3.75,5.835 3.75,6.25 C3.75,6.55 3.925,6.805 4.18,6.925 L4,8 L5,8 Z" id="Icon-Shape" fill="#000000" fill-rule="nonzero"></path>
        </g>
        <path d="M30,25 L30.5,25 C31.3272847,25 32,25.6727153 32,26.5 L32,30.5 C32,31.3272847 31.3272847,32 30.5,32 L23.5,32 C22.6727153,32 22,31.3272847 22,30.5 L22,26.5 C22,25.6727153 22.6727153,25 23.5,25 L24,25 L24,24 C24,22.3427153 25.3427153,21 27,21 C28.6572847,21 30,22.3427153 30,24 L30,25 Z" id="Path" fill="#FFFFFF" fill-rule="nonzero"></path>
        <path d="M29,26 L30.5,26 C30.775,26 31,26.225 31,26.5 L31,30.5 C31,30.775 30.775,31 30.5,31 L23.5,31 C23.225,31 23,30.775 23,30.5 L23,26.5 C23,26.225 23.225,26 23.5,26 L25,26 L25,24 C25,22.895 25.895,22 27,22 C28.105,22 29,22.895 29,24 L29,26 Z M28,26 L28,24 C28,23.45 27.55,23 27,23 C26.45,23 26,23.45 26,24 L26,26 L28,26 Z M27.5,30 L27.32,28.425 C27.575,28.305 27.75,28.05 27.75,27.75 C27.75,27.335 27.415,27 27,27 C26.585,27 26.25,27.335 26.25,27.75 C26.25,28.05 26.425,28.305 26.68,28.425 L26.5,30 L27.5,30 Z" id="Icon-Shape" fill="#000000" fill-rule="nonzero"></path>
    </g>
</svg>