<?xml version="1.0" encoding="UTF-8"?>
<svg width="32px" height="32px" viewBox="0 0 32 32" version="1.1" xmlns="http://www.w3.org/2000/svg" xmlns:xlink="http://www.w3.org/1999/xlink">
    <!-- Generator: Sketch 53.2 (72643) - https://sketchapp.com -->
    <title>topic-locked</title>
    <desc>Created with Sketch.</desc>
    <g id="topic-locked" stroke="none" stroke-width="1" fill="none" fill-rule="evenodd">
        <path d="M29.5,24.5 L30.5,24.5 C30.775,24.5 31,24.725 31,25 L31,30.5 C31,30.775 30.775,31 30.5,31 L22.5,31 C22.225,31 22,30.775 22,30.5 L22,25 C22,24.725 22.225,24.5 22.5,24.5 L23.5,24.5 L23.5,23 C23.5,21.895 25.395,21 26.5,21 C27.605,21 29.5,21.895 29.5,23 L29.5,24.5 Z" id="Icon-Path" fill="#FFFFFF"></path>
        <path d="M28.5,25.5 L29.5,25.5 C29.775,25.5 30,25.725 30,26 L30,29.5 C30,29.775 29.775,30 29.5,30 L23.5,30 C23.225,30 23,29.775 23,29.5 L23,26 C23,25.725 23.225,25.5 23.5,25.5 L24.5,25.5 L24.5,24 C24.5,22.895 25.395,22 26.5,22 C27.605,22 28.5,22.895 28.5,24 L28.5,25.5 Z M27.5,25.5 L27.5,24 C27.5,23.45 27.05,23 26.5,23 C25.95,23 25.5,23.45 25.5,24 L25.5,25.5 L27.5,25.5 Z M27,29 L26.82,27.925 C27.075,27.805 27.25,27.55 27.25,27.25 C27.25,26.835 26.915,26.5 26.5,26.5 C26.085,26.5 25.75,26.835 25.75,27.25 C25.75,27.55 25.925,27.805 26.18,27.925 L26,29 L27,29 Z" id="Icon-Shape" fill="#000000" fill-rule="nonzero"></path>
    </g>
</svg>