<?xml version="1.0" encoding="UTF-8"?>
<svg width="32px" height="32px" viewBox="0 0 32 32" version="1.1" xmlns="http://www.w3.org/2000/svg" xmlns:xlink="http://www.w3.org/1999/xlink">
    <!-- Generator: Sketch 53.2 (72643) - https://sketchapp.com -->
    <title>topic-content-hot</title>
    <desc>Created with Sketch.</desc>
    <g id="topic-content-hot" stroke="none" stroke-width="1" fill="none" fill-rule="evenodd">
        <path d="M14,24 C10.9267375,22.267925 9,20.9993536 9,18 C9,13 15.5,12.5 15,8 C16.4990357,8.64244385 18,9.5 18,12 C18,14 14.5,16.5 17.5,16.5 C20.5,16.5 17.5,12 21,12 C20.5,13.5 21,14 21.5,15 C22.5,16.5 23,15.5 23,18 C23,20.8787125 21.3032294,21.8481438 17.5,24 C18.1595234,23 18.5,22.5 18.5,22 C18.5,19.5 14,21.9911375 14,18 C12,20.5 13.0345875,21.9911375 14,24 Z" id="fire" fill="#000000" fill-rule="nonzero"></path>
    </g>
</svg>